<?xml version="1.0" encoding="utf-8"?>
<!-- Generator: Adobe Illustrator 24.2.3, SVG Export Plug-In . SVG Version: 6.00 Build 0)  -->
<svg version="1.1" id="Layer_1" xmlns="http://www.w3.org/2000/svg" xmlns:xlink="http://www.w3.org/1999/xlink" x="0px" y="0px"
	 viewBox="0 0 1080 343.01" style="enable-background:new 0 0 1080 343.01;" xml:space="preserve">
<style type="text/css">
	.st0{fill:#002C4E;}
	.st1{fill-rule:evenodd;clip-rule:evenodd;fill:#002C4E;}
</style>
<g>
	<path class="st0" d="M990.27,343.01c-6.15,0-11.23-2.03-15.24-6.08c-4-4.05-6.01-9.2-6.01-15.43c0-6.25,2.01-11.41,6.03-15.46
		c4.01-4.05,9.1-6.08,15.22-6.08c6.16,0,11.25,2.03,15.29,6.11c4.05,4.07,6.07,9.21,6.07,15.44c0,6.24-2.02,11.38-6.05,15.43
		C1001.55,340.97,996.45,343.01,990.27,343.01 M990.27,338.2c4.61,0,8.43-1.58,11.47-4.73c3.02-3.15,4.53-7.15,4.53-11.99
		c0-4.85-1.51-8.87-4.52-12.02c-3.01-3.15-6.85-4.72-11.48-4.72c-4.61,0-8.43,1.59-11.47,4.75c-3.02,3.16-4.54,7.16-4.54,11.99
		c0,4.84,1.51,8.84,4.54,11.99C981.83,336.63,985.66,338.2,990.27,338.2z M928.14,341.93v-41.31h5.17v41.31H928.14z M855.71,341.93
		v-41.08h23.55c4.03,0,7.18,1.01,9.45,3.04c2.29,2.02,3.43,4.81,3.43,8.38c0,2.98-0.89,5.52-2.68,7.65
		c-1.79,2.12-4.14,3.44-7.08,3.96l10.28,18.05h-5.65l-10.28-17.97h-15.93v17.97H855.71z M860.81,319.15h18.13
		c2.58,0,4.54-0.57,5.86-1.72c1.33-1.14,1.99-2.81,1.99-5.02c0-2.16-0.66-3.84-1.99-5.04c-1.32-1.21-3.19-1.8-5.6-1.8h-18.38V319.15
		z M778.34,341.93l20.14-41.08h4.24l20.35,41.08h-5.54l-5.59-11.05h-22.7l-5.42,11.05H778.34z M791.59,326.07h18.08l-9.07-18.19
		L791.59,326.07z M740.37,341.93v-41.31h5.17v41.31H740.37z M675.56,341.93v-41.08h5.09v36.35h26.83v4.73H675.56z M631.42,341.93
		v-41.31h5.17v41.31H631.42z M554.97,341.93v-41.08h24.3c4.04,0,7.09,0.86,9.16,2.59c2.07,1.71,3.11,4.27,3.11,7.63
		c0,1.64-0.32,3.11-0.96,4.39c-0.65,1.3-1.56,2.34-2.76,3.12c2.18,1.27,3.84,2.82,4.95,4.65c1.12,1.84,1.68,3.95,1.68,6.32
		c0,3.8-1.25,6.81-3.74,9.03c-2.5,2.22-5.88,3.33-10.15,3.33H554.97z M560.06,337.2h21.51c2.34,0,4.17-0.69,5.51-2.07
		c1.33-1.37,2.01-3.25,2.01-5.64c0-2.35-0.67-4.23-2.01-5.61c-1.35-1.38-3.18-2.08-5.51-2.08h-21.51V337.2z M560.06,317.07h19.65
		c2.16,0,3.8-0.49,4.94-1.47c1.14-0.98,1.71-2.39,1.71-4.22c0-1.93-0.55-3.39-1.65-4.36c-1.11-0.97-2.78-1.45-5.01-1.45h-19.65
		V317.07z M498.03,343.01c-6.15,0-11.23-2.03-15.24-6.08c-4-4.05-6.01-9.2-6.01-15.43c0-6.25,2.01-11.41,6.03-15.46
		c4.01-4.05,9.09-6.08,15.22-6.08c6.16,0,11.25,2.03,15.29,6.11c4.05,4.07,6.07,9.21,6.07,15.44c0,6.24-2.02,11.38-6.05,15.43
		C509.31,340.97,504.22,343.01,498.03,343.01z M498.03,338.2c4.61,0,8.44-1.58,11.47-4.73c3.02-3.15,4.53-7.15,4.53-11.99
		c0-4.85-1.51-8.87-4.52-12.02c-3.01-3.15-6.85-4.72-11.48-4.72c-4.61,0-8.43,1.59-11.47,4.75c-3.02,3.16-4.54,7.16-4.54,11.99
		c0,4.84,1.51,8.84,4.54,11.99C489.6,336.63,493.42,338.2,498.03,338.2z M398.73,341.93v-41.08h4.73l16.6,25.15l16.7-25.15h4.65
		v41.08h-5.06v-32.07l-16.3,24.3l-16.3-24.3v32.07H398.73z M325.62,341.93v-41.08h2.68l26.65,30.7v-30.7h5.13v41.08h-2.6
		l-26.76-30.7v30.7H325.62z M281.48,341.93v-41.31h5.17v41.31H281.48z"/>
	<g>
		<defs>
			<path id="SVGID_1_" d="M144.36,176.44c-0.64-1.73-13.79-38.67-39.46-110.83L64.16,179.4h81.48L144.36,176.44z M374.06,207.77
				c0.74,0.56,1.11,4.98,1.11,13.29c0,8.31-0.46,15.88-1.39,22.71c-0.18,0.55-0.46,1.2-0.83,1.94l-1.38,1.38
				c-2.77,2.58-8.03,5.26-15.79,8.03c-12.92,4.62-28.99,6.92-48.19,6.92c-26.96,0-49.94-8.77-68.96-26.31
				c-19.39-17.54-29.26-39.6-29.63-66.19v-0.28c0.37-26.4,10.25-48.47,29.63-66.19c19.02-17.54,42.01-26.31,68.96-26.31
				c19.2,0,35.26,2.31,48.19,6.92c7.76,2.77,13.02,5.45,15.79,8.03l1.38,1.38c0.37,0.74,0.65,1.39,0.83,1.94
				c0.92,6.83,1.39,14.4,1.39,22.71c0,8.31-0.37,12.74-1.11,13.29h-0.55c-0.37-2.22-1.29-4.89-2.77-8.03
				c-1.48-3.14-3.74-6.37-6.79-9.69c-3.05-3.32-6.88-6.69-11.49-10.11c-4.62-3.41-10.25-6.6-16.89-9.55
				c-7.39-3.32-16.99-4.98-28.8-4.98c-19.94,0-36.28,6.65-49.02,19.94c-13.66,14.4-20.5,34.16-20.5,59.27v1.39v0.28v1.38
				c0,25.11,6.83,44.87,20.5,59.27c12.74,13.29,29.08,19.94,49.02,19.94c11.82,0,21.42-1.66,28.8-4.99
				c6.65-2.95,12.28-6.14,16.89-9.56c4.62-3.42,8.45-6.79,11.49-10.11c3.05-3.32,5.31-6.56,6.79-9.69c1.48-3.14,2.4-5.82,2.77-8.03
				H374.06z M567.38,80.92c-0.18,17.17-0.37,31.85-0.55,44.04h-1.11c-8.31-12.37-15.33-20.59-21.05-24.65
				c-7.2-5.17-19.57-7.76-37.11-7.76h-10.52c-3.32,0.37-5.17,1.11-5.54,2.22c-0.37,0.55-0.55,1.29-0.55,2.22l-0.28,136.26
				c0,5.17,1.38,9.51,4.15,13.02c1.85,2.77,4.16,5.12,6.92,7.06c2.77,1.94,6,3.28,9.69,4.02c0.37,0.37,0.46,0.65,0.28,0.83
				c-0.74,0.55-3.05,0.74-6.92,0.55c-23.82-0.92-42.19-0.92-55.11,0c-2.77,0.18-4.62-0.18-5.54-1.11
				c6.28-0.55,11.59-2.82,15.92-6.78c4.34-3.97,6.69-8.63,7.06-13.99l-0.28-139.86c0-1.85-0.92-3.23-2.77-4.16H449.4
				c-17.54,0-29.91,2.58-37.11,7.75c-5.72,4.06-12.74,12.28-21.05,24.65h-1.11c-0.18-12.19-0.37-26.87-0.55-44.04l76.16,0.28
				L567.38,80.92z M643.27,79.26c-4.98,0.37-9.14,1.89-12.46,4.57c-3.32,2.68-6.28,6.05-8.86,10.11v139.31
				c0,5.17,1.39,9.51,4.16,13.02c1.84,2.77,4.15,5.12,6.92,7.06c2.77,1.94,6,3.28,9.69,4.02c0.37,0.37,0.46,0.65,0.28,0.83
				c-0.74,0.55-3.05,0.74-6.92,0.55c-23.82-0.92-42.19-0.92-55.11,0c-2.77,0.18-4.62-0.18-5.54-1.11
				c6.28-0.55,11.59-2.82,15.92-6.78c4.34-3.97,6.69-8.63,7.06-13.99V102.53c0-3.69-0.74-6.92-2.22-9.69
				c-1.48-3.69-3.46-6.88-5.95-9.55c-2.49-2.68-5.22-4.02-8.17-4.02c1.48-0.37,11.91-0.6,31.3-0.69
				C632.75,78.48,642.72,78.71,643.27,79.26z M811.94,79.82h33.51l0.28,0.28c-4.25,0.74-7.57,2.82-9.97,6.23
				c-2.4,3.41-4.98,6.88-7.75,10.39c-2.77,3.32-9.09,15.74-18.97,37.25c-9.88,21.51-17.4,38.27-22.57,50.27
				c-13.48,33.05-25.11,62.59-34.9,88.62c-24.74-58.9-49.2-115.03-73.39-168.39c-2.77-7.38-6.28-13.11-10.52-17.17
				c-4.25-4.06-8.86-6.46-13.85-7.2v-0.28l42.93-0.28c7.94,20.86,27.14,66.56,57.61,137.09c0.74,1.48,1.57,2.22,2.49,2.22
				c0.74,0,1.48-0.74,2.22-2.22L811.94,79.82z M1005.82,173.98c0-26.22-7.2-46.99-21.6-62.31c-13.66-14.58-31.85-21.88-54.56-21.88
				c-18.65,0-34.02,6.93-46.11,20.77c-12.09,13.85-18.14,31.85-18.14,54.01c0,26.59,7.02,47.54,21.05,62.87
				c13.66,14.77,32.13,22.16,55.39,22.16c18.83,0,34.2-6.97,46.11-20.91C999.87,214.74,1005.82,196.51,1005.82,173.98z
				 M1033.24,169.27c0,26.03-9.6,48.1-28.8,66.19c-19.02,17.91-41.82,26.87-68.41,26.87c-27.88,0-51.05-8.4-69.51-25.2
				c-19.02-17.17-28.53-39.51-28.53-67.02c0-26.4,9.6-48.65,28.8-66.75c19.02-17.72,42.1-26.59,69.24-26.59
				c27.69,0,50.77,8.68,69.24,26.03C1023.91,120.16,1033.24,142.32,1033.24,169.27z M39.14,258.36H0.32L0,257.99
				c17.71-3.56,37.06-58.4,42.5-72.1c11.44-28.79,20.16-51.21,26.14-67.28C84.26,74.38,97.74,34.84,109.07,0
				c28.66,78.83,85.97,234.2,113.47,305.81c3.73,9.7,7.27,17.54,12.19,22.98c4.92,5.44,10.26,8.65,16.04,9.64v0.37
				c-51.25,0.38-49.61-0.19-74.95-73.11c-11.23-32.32-22.27-63.85-25.05-71.83H59.35L39.14,258.36z"/>
		</defs>
		<use xlink:href="#SVGID_1_"  style="overflow:visible;fill:#002C4E;"/>
		<clipPath id="SVGID_2_">
			<use xlink:href="#SVGID_1_"  style="overflow:visible;"/>
		</clipPath>
	</g>
	<path class="st1" d="M1065.73,94.48c-1.59,0-3.07,0.28-4.44,0.85c-1.38,0.56-2.62,1.37-3.72,2.44c-1.15,1.15-2.03,2.44-2.62,3.88
		c-0.6,1.43-0.9,2.95-0.9,4.54c0,1.54,0.28,3,0.84,4.37c0.56,1.38,1.4,2.62,2.49,3.73c1.11,1.14,2.38,2.02,3.81,2.64
		c1.43,0.61,2.93,0.91,4.5,0.91c1.55,0,3.03-0.29,4.46-0.87c1.42-0.58,2.69-1.41,3.82-2.49c1.13-1.09,1.98-2.33,2.57-3.76
		c0.59-1.41,0.88-2.93,0.88-4.53c0-1.57-0.28-3.06-0.84-4.46c-0.56-1.39-1.39-2.63-2.46-3.71c-1.14-1.16-2.42-2.03-3.84-2.64
		C1068.86,94.78,1067.34,94.48,1065.73,94.48 M1062.23,105.35h3.22c0.7,0,1.24-0.09,1.6-0.26c0.36-0.17,0.65-0.43,0.87-0.8
		c0.22-0.36,0.32-0.79,0.32-1.27c0-0.7-0.2-1.25-0.61-1.65c-0.41-0.4-1.01-0.6-1.82-0.6h-3.58V105.35z M1060.74,113.06V99.25h5.02
		c1.05,0,1.82,0.13,2.32,0.38c0.5,0.26,0.91,0.69,1.23,1.28c0.32,0.61,0.48,1.3,0.48,2.09c0,1.04-0.27,1.89-0.81,2.53
		c-0.54,0.65-1.33,1.06-2.37,1.24c0.42,0.25,0.75,0.5,0.96,0.76c0.45,0.53,0.84,1.12,1.17,1.76l1.98,3.76h-1.88l-1.51-2.88
		c-0.58-1.12-1.03-1.88-1.32-2.27c-0.3-0.39-0.59-0.65-0.87-0.78c-0.28-0.13-0.67-0.2-1.17-0.2h-1.73v6.13H1060.74z M1065.73,91.87
		c1.98,0,3.85,0.37,5.61,1.09c1.75,0.74,3.32,1.8,4.69,3.2c1.28,1.32,2.27,2.85,2.95,4.55c0.69,1.71,1.03,3.53,1.03,5.45
		c0,1.98-0.36,3.83-1.09,5.56c-0.72,1.74-1.77,3.26-3.14,4.57c-1.39,1.34-2.96,2.37-4.69,3.08c-1.73,0.71-3.52,1.07-5.36,1.07
		c-1.93,0-3.76-0.38-5.49-1.11c-1.73-0.74-3.28-1.81-4.64-3.23c-1.34-1.37-2.36-2.92-3.07-4.62c-0.71-1.69-1.06-3.47-1.06-5.32
		c0-1.92,0.38-3.77,1.13-5.54c0.75-1.77,1.83-3.35,3.23-4.72c1.34-1.32,2.85-2.33,4.53-3.01
		C1062.03,92.21,1063.83,91.87,1065.73,91.87z"/>
</g>
</svg>
