<?xml version="1.0" encoding="utf-8"?>
<!-- Generator: Adobe Illustrator 26.0.3, SVG Export Plug-In . SVG Version: 6.00 Build 0)  -->
<svg version="1.1" id="Capa_1" xmlns="http://www.w3.org/2000/svg" xmlns:xlink="http://www.w3.org/1999/xlink" x="0px" y="0px"
	 viewBox="0 0 566.9 566.9" style="enable-background:new 0 0 566.9 566.9;" xml:space="preserve">
<style type="text/css">
	.st0{fill:#435363;}
	.st1{fill:#FFFFFF;}
	.st2{fill:#FFFFFF;stroke:#FFFFFF;stroke-width:6;stroke-miterlimit:10;}
</style>
<path class="st0" d="M142.5,249.2c1.3-29.1,11.4-54.9,28.6-78.1c13.2-17.7,30.1-31.3,49.9-41c22.9-11.2,47.3-15.9,72.7-13.9
	c30.7,2.4,58.1,13.5,81.6,33.8c26.1,22.5,42.2,50.8,47.5,84.7c6.6,41.3-3.6,78.8-29.8,111.3c-21.5,26.7-49.7,43.1-83.5,49.9
	c-13.3,2.7-26.6,2.9-39.9,2c-14.4-1-28.5-4.9-41.9-10.7c-13.6-5.9-25.8-13.8-37.1-23.5c-21.7-18.6-35.8-41.8-43.6-69.1
	c-2.8-9.7-4.6-19.5-4.8-29.7C142.5,259.7,142.5,254.4,142.5,249.2z"/>
<path class="st1" d="M274.1,406.9c-4.5,0-9.1-0.2-14.1-0.5c-14.6-1-29.6-4.8-44.7-11.4c-14-6.1-26.9-14.2-39.3-24.9
	c-22.2-19.1-37.8-43.7-46.2-73.2c-3.2-11.2-4.9-21.7-5.1-31.9v-0.3v-0.3c0.3-5,0.3-10.2,0.3-15.2v-0.4c1.3-29.6,11.5-57.5,30.3-82.8
	c13.7-18.4,31.6-33.1,53-43.6c24.3-11.9,50.3-16.9,77.1-14.7c32.8,2.6,61.9,14.6,86.5,35.8c27.8,24,44.8,54.2,50.3,89.8
	c7,43.6-3.7,83.3-31.6,117.9c-22.4,27.8-52.1,45.6-88.4,52.9C293.4,406,284.3,406.9,274.1,406.9z M141.7,265
	c0.2,8.6,1.7,17.5,4.5,27.2c7.6,26.6,21,47.9,41,65c11.1,9.5,22.5,16.8,35,22.2c13.3,5.8,26.5,9.1,39.1,10c14.6,1,26.5,0.4,37.6-1.9
	c32.3-6.5,58.7-22.3,78.6-46.9c24.8-30.7,34.2-65.9,28-104.6c-4.9-31.5-20-58.3-44.7-79.6C339,137.6,313.2,127,284,124.7
	c-23.8-1.9-46.8,2.5-68.3,13.1c-19,9.3-34.7,22.2-46.8,38.4C152,199,143.2,222.9,142,249.4C142,254.5,142,259.8,141.7,265z"/>
<g>
	<g>
		<circle class="st1" cx="224.2" cy="214.8" r="17.6"/>
	</g>
	<g>
		<circle class="st1" cx="327.7" cy="214.8" r="17.6"/>
	</g>
</g>
<path class="st2" d="M279.5,336.8c30.7-0.1,53.2-21.6,64-52c0.7-1.9,0.3-3.1-1.6-3.9c-0.9-0.4-1.9-1-2.6-1.7
	c-1.4-1.4-1.7-3.1-0.7-4.8c1-1.8,2.9-2.4,4.5-1.5c5,2.6,10.3,3.4,15.9,3.2c2.1-0.1,3.5,1.3,3.6,3.5c0.1,2.1-1,3.5-3.1,4.1
	c-0.6,0.2-1.2,0.3-1.7,0.2c-5-1-6.6,1.9-8.1,6.1c-6.3,17.4-16.7,31.9-32.3,42.3c-9.6,6.4-20.2,10.2-31.6,11.5
	c-19,2.2-37.2-0.5-53.7-11c-14.4-9.2-24.3-22.2-31.1-37.7c-1.2-2.7-2.3-5.4-3-8.2c-0.7-2.4-1.9-3.2-4.3-3c-1.5,0.1-3.1,0-4.5-0.3
	c-2-0.5-3.2-2-3-4.1c0.2-2.2,1.6-3.5,3.7-3.4c5.5,0.2,10.6-0.6,15.6-3.1c1.8-1,3.8-0.3,4.8,1.5c1.1,2,0.4,3.8-1.3,5.2
	c-4.3,3.5-4.3,3.6-2.2,8.8c5.3,13.2,12.8,24.8,24.1,33.7C243.7,332.5,258.3,336.7,279.5,336.8z"/>
</svg>
