<?xml version="1.0" encoding="utf-8"?>
<!-- Generator: Adobe Illustrator 26.0.3, SVG Export Plug-In . SVG Version: 6.00 Build 0)  -->
<svg version="1.1" id="Capa_1" xmlns="http://www.w3.org/2000/svg" xmlns:xlink="http://www.w3.org/1999/xlink" x="0px" y="0px"
	 viewBox="0 0 566.9 566.9" style="enable-background:new 0 0 566.9 566.9;" xml:space="preserve">
<style type="text/css">
	.st0{fill:#435363;}
	.st1{fill:#FFFFFF;}
	.st2{fill:#FFFFFF;stroke:#FFFFFF;stroke-width:5.5989;stroke-miterlimit:10;}
</style>
<path class="st0" d="M139.4,248.6c1.3-28.9,11.4-54.7,28.5-77.7c13.2-17.7,30-31.2,49.7-40.8c22.8-11.1,47.1-15.8,72.4-13.8
	c30.6,2.4,57.8,13.5,81.2,33.6c26,22.4,42,50.6,47.3,84.3c6.5,41.1-3.6,78.5-29.7,110.8c-21.5,26.6-49.5,42.9-83.1,49.7
	c-13.2,2.7-26.5,2.9-39.7,2c-14.4-1-28.4-4.9-41.7-10.7c-13.5-5.9-25.7-13.7-36.9-23.4c-21.6-18.5-35.7-41.6-43.4-68.8
	c-2.7-9.7-4.5-19.5-4.8-29.5C139.4,259.1,139.4,253.9,139.4,248.6z"/>
<path class="st1" d="M279.3,405.7c-4.5,0-9.1-0.2-14-0.5c-14.5-1-29.5-4.8-44.5-11.4c-14.2-6.2-27-14.3-39.1-24.8
	c-22.2-19-37.7-43.6-46-72.9c-3.1-11.3-4.8-21.6-5.1-31.6v-0.3v-0.3c0.2-5,0.2-10.1,0.2-15.4v-0.4c1.3-29.5,11.5-57.2,30.2-82.4
	c13.7-18.4,31.5-33,52.8-43.4c24.3-11.8,50.1-16.7,76.8-14.6c32.6,2.6,61.5,14.5,86.1,35.6c27.7,23.9,44.6,54,50.2,89.4
	c6.9,43.6-3.7,83.1-31.5,117.5c-22.4,27.7-52,45.4-88,52.7C298.5,404.8,289.4,405.7,279.3,405.7z M147.5,264.3
	c0.3,8.5,1.7,17.4,4.5,27.2c7.5,26.4,20.8,47.5,40.7,64.6c10.8,9.3,22.1,16.5,34.8,22.1c13.2,5.8,26.3,9.1,38.9,10
	c14.5,1,26.4,0.4,37.4-1.8c32.1-6.5,58.4-22.2,78.2-46.7c24.6-30.5,34-65.5,27.9-104.1c-4.9-31.4-19.9-58-44.5-79.2
	c-21.7-18.7-47.4-29.3-76.3-31.6c-23.6-1.9-46.5,2.5-68,13c-18.9,9.2-34.5,22.1-46.6,38.2c-16.6,22.3-25.6,46.8-26.8,72.8
	C147.7,253.9,147.7,259.1,147.5,264.3z"/>
<g>
	<circle class="st1" cx="228.2" cy="214.4" r="17.5"/>
	<circle class="st1" cx="331.4" cy="214.4" r="17.5"/>
</g>
<path class="st2" d="M284.4,273.3c28.6,0.1,49.7,20.2,59.8,48.5c0.6,1.8,0.3,2.9-1.5,3.6c-0.9,0.4-1.7,1-2.4,1.6
	c-1.3,1.3-1.6,2.9-0.7,4.5c1,1.6,2.7,2.2,4.2,1.4c4.7-2.4,9.6-3.2,14.8-3c2,0.1,3.3-1.2,3.4-3.2c0.1-2-1-3.3-2.9-3.8
	c-0.5-0.2-1.1-0.3-1.6-0.2c-4.7,0.9-6.2-1.8-7.6-5.7c-5.9-16.3-15.6-29.8-30.1-39.5c-8.9-6-18.8-9.5-29.4-10.8
	c-17.8-2.1-34.7,0.5-50.1,10.3c-13.4,8.6-22.7,20.7-29,35.2c-1.1,2.5-2.1,5-2.8,7.6c-0.6,2.2-1.8,3-4,2.8c-1.4-0.1-2.9,0-4.2,0.3
	c-1.9,0.5-3,1.9-2.8,3.9c0.2,2.1,1.5,3.2,3.5,3.2c5.1-0.2,9.9,0.5,14.5,2.9c1.7,0.9,3.5,0.3,4.5-1.4c1.1-1.9,0.4-3.6-1.2-4.9
	c-4-3.3-4-3.3-2-8.2c4.9-12.3,12-23.2,22.5-31.5C251,277.4,264.7,273.4,284.4,273.3z"/>
</svg>
