<?xml version="1.0" encoding="utf-8"?>
<!-- Generator: Adobe Illustrator 26.0.3, SVG Export Plug-In . SVG Version: 6.00 Build 0)  -->
<svg version="1.1" id="Capa_1" xmlns="http://www.w3.org/2000/svg" xmlns:xlink="http://www.w3.org/1999/xlink" x="0px" y="0px"
	 viewBox="0 0 566.93 566.93" style="enable-background:new 0 0 566.93 566.93;" xml:space="preserve">
<style type="text/css">
	.st0{fill:#FFFFFF;}
	.st1{fill:none;stroke:#F4121E;stroke-width:3;stroke-miterlimit:10;}
	.st2{fill:#F4121E;}
</style>
<g>
	<g>
		<path class="st0" d="M161.95,298.16c0.03-69.9,56.74-126.59,126.55-126.51c70.35,0.08,126.88,56.62,126.79,126.79
			c-0.09,70.21-56.74,126.6-127.09,126.5C218.34,424.84,161.91,368.19,161.95,298.16z"/>
		<g>
			<g>
				<path class="st1" d="M223.7,299.83c-8,2.93-11.01,6.82-10.06,12.69c0.95,5.82,5.57,8.76,13.85,8.76c9.62,0,19.24,0,28.86-0.03
					c7.24-0.02,7.8,0.87,5.66,7.65c-2.8,8.86-5.7,17.84-5.22,27.21c0.49,9.5,5.21,16.07,14.93,16.85c5.87,0.47,7.42-1.02,7.33-6.96
					c-0.09-6.05,1.05-11.83,4.31-16.93c3.9-6.1,8.08-12.03,12.29-17.93c2.94-4.11,6.13-8.15,11.24-9.66
					c4.28-1.26,5.77-3.91,5.75-8.2c-0.1-20.87-0.02-41.73-0.05-62.6c-0.01-6.1-1.84-7.92-7.98-7.92
					c-20.13-0.02-40.26-0.04-60.39,0.04c-10.37,0.04-14.39,6.29-10.15,15.59c0.74,1.63,1.25,2.83-1.35,3.45
					c-5.05,1.21-7.17,4.77-6.83,9.98c0.22,3.37,1.91,5.97,4.11,8.46C218.92,284.18,216.68,291.22,223.7,299.83z"/>
				<path class="st1" d="M323.99,281.33c0,10.94-0.04,21.89,0.02,32.83c0.02,4.45,1.75,6.15,6.19,6.18
					c8.58,0.06,17.16,0.06,25.74,0.01c5.09-0.03,6.96-1.87,6.96-6.96c0.03-21.3,0.04-42.59-0.01-63.89
					c-0.01-5.21-1.4-6.61-6.47-6.65c-8.58-0.06-17.16-0.07-25.74-0.01c-5.35,0.04-6.69,1.48-6.7,6.99
					C323.97,260.33,323.99,270.83,323.99,281.33z"/>
			</g>
			<circle class="st2" cx="342.27" cy="264.95" r="5.83"/>
		</g>
	</g>
</g>
</svg>
