<?xml version="1.0" encoding="utf-8"?>
<!-- Generator: Adobe Illustrator 26.0.3, SVG Export Plug-In . SVG Version: 6.00 Build 0)  -->
<svg version="1.1" id="Capa_1" xmlns="http://www.w3.org/2000/svg" xmlns:xlink="http://www.w3.org/1999/xlink" x="0px" y="0px"
	 viewBox="0 0 566.93 566.93" style="enable-background:new 0 0 566.93 566.93;" xml:space="preserve">
<style type="text/css">
	.st0{fill:#FFFFFF;}
	.st1{fill:none;stroke:#35B747;stroke-width:3;stroke-miterlimit:10;}
	.st2{fill:#35B747;}
</style>
<g>
	<g>
		<path class="st0" d="M415.29,298.43c-0.03,69.9-56.74,126.59-126.55,126.51c-70.35-0.08-126.88-56.62-126.79-126.79
			c0.09-70.21,56.74-126.6,127.09-126.5C358.9,171.75,415.32,228.41,415.29,298.43z"/>
		<g>
			<g>
				<path class="st1" d="M353.54,296.76c8-2.93,11.01-6.82,10.06-12.69c-0.95-5.82-5.57-8.76-13.85-8.76c-9.62,0-19.24,0-28.86,0.03
					c-7.24,0.02-7.8-0.87-5.66-7.65c2.8-8.86,5.7-17.84,5.22-27.21c-0.49-9.5-5.21-16.07-14.93-16.85
					c-5.87-0.47-7.42,1.02-7.33,6.96c0.09,6.05-1.05,11.83-4.31,16.93c-3.9,6.1-8.08,12.03-12.29,17.93
					c-2.94,4.11-6.13,8.15-11.24,9.66c-4.28,1.26-5.77,3.91-5.75,8.2c0.1,20.87,0.02,41.73,0.05,62.6c0.01,6.1,1.84,7.92,7.98,7.92
					c20.13,0.02,40.26,0.04,60.39-0.04c10.37-0.04,14.39-6.29,10.15-15.59c-0.74-1.63-1.25-2.83,1.35-3.45
					c5.05-1.21,7.17-4.77,6.83-9.98c-0.22-3.37-1.91-5.97-4.11-8.46C358.32,312.42,360.56,305.38,353.54,296.76z"/>
				<path class="st1" d="M253.25,315.27c0-10.94,0.04-21.89-0.02-32.83c-0.02-4.45-1.75-6.15-6.19-6.18
					c-8.58-0.06-17.16-0.06-25.74-0.01c-5.09,0.03-6.96,1.87-6.96,6.96c-0.03,21.3-0.04,42.59,0.01,63.89
					c0.01,5.21,1.4,6.61,6.47,6.65c8.58,0.06,17.16,0.07,25.74,0.01c5.35-0.04,6.69-1.48,6.7-6.99
					C253.26,336.27,253.25,325.77,253.25,315.27z"/>
			</g>
			<circle class="st2" cx="234.97" cy="331.65" r="5.83"/>
		</g>
	</g>
</g>
</svg>
